<svg xmlns="http://www.w3.org/2000/svg" width="37" height="34" viewBox="0 0 37 34">
    <path fill="#C2C6D1" fill-rule="nonzero" d="M21.408 0c-1.667 0-3.616 1.338-3.91 7.311.248-.006.492-.025.743-.025.278 0 .566.016.841.025.189-3.59 1.024-5.692 2.326-5.692.556 0 .872.31 1.46.961.686.762 1.582 1.752 3.339 2.125a5.143 5.143 0 0 1-.05-.657c0-.342.035-.664.1-.987-1.09-.304-1.664-.945-2.227-1.568C23.402.797 22.682 0 21.408 0zm9.5.81c-1.748 0-3.167 1.454-3.167 3.238 0 1.783 1.42 3.238 3.167 3.238 1.747 0 3.166-1.455 3.166-3.238 0-1.784-1.42-3.238-3.166-3.238zM18.24 8.905C8.636 8.905.824 13.907.824 21.048.824 28.188 8.636 34 18.241 34s17.417-5.812 17.417-12.952S27.846 8.905 18.24 8.905zm-13.854.759c-1.157 0-2.255.484-3.093 1.34a4.475 4.475 0 0 0-.866 5.06c1.197-2.369 3.257-4.39 5.913-5.894-.603-.313-1.27-.506-1.954-.506zm27.708 0c-.683 0-1.351.193-1.954.506 2.656 1.505 4.716 3.525 5.912 5.894a4.475 4.475 0 0 0-.866-5.06c-.838-.856-1.935-1.34-3.092-1.34zM11.908 16.19c1.31 0 2.375 1.088 2.375 2.429 0 1.34-1.064 2.429-2.375 2.429-1.312 0-2.375-1.088-2.375-2.429 0-1.34 1.063-2.429 2.375-2.429zm12.666 0c1.311 0 2.375 1.088 2.375 2.429 0 1.34-1.064 2.429-2.375 2.429S22.2 19.96 22.2 18.619c0-1.34 1.064-2.429 2.375-2.429zm-13.409 8.905a.813.813 0 0 1 .52.33c.083.12 1.939 2.655 6.556 2.655 4.679 0 6.537-2.605 6.556-2.63a.794.794 0 0 1 1.113-.203c.356.256.424.746.173 1.113-.092.136-2.35 3.34-7.842 3.34-5.495 0-7.75-3.204-7.843-3.34-.25-.367-.185-.857.174-1.113a.794.794 0 0 1 .593-.152z"/>
</svg>
