<svg width="22" height="22" viewBox="0 0 22 22" version="1.1" xmlns="http://www.w3.org/2000/svg" xmlns:xlink="http://www.w3.org/1999/xlink">
<title>play-circle</title>
<desc>Created using Figma</desc>
<g id="Canvas" transform="translate(-11136 -8707)">
<g id="play-circle">
<g id="Oval">
<use xlink:href="#path0_stroke" transform="translate(11137 8708)" fill="#03D9C9"/>
</g>
<g id="Shape">
<use xlink:href="#path1_stroke" transform="translate(11145 8714)" fill="#03D9C9"/>
</g>
</g>
</g>
<defs>
<path id="path0_stroke" d="M 10 20.75C 15.9371 20.75 20.75 15.9371 20.75 10L 19.25 10C 19.25 15.1086 15.1086 19.25 10 19.25L 10 20.75ZM 20.75 10C 20.75 4.06294 15.9371 -0.75 10 -0.75L 10 0.75C 15.1086 0.75 19.25 4.89137 19.25 10L 20.75 10ZM 10 -0.75C 4.06294 -0.75 -0.75 4.06294 -0.75 10L 0.75 10C 0.75 4.89137 4.89137 0.75 10 0.75L 10 -0.75ZM -0.75 10C -0.75 15.9371 4.06294 20.75 10 20.75L 10 19.25C 4.89137 19.25 0.75 15.1086 0.75 10L -0.75 10Z"/>
<path id="path1_stroke" d="M 6 4L 6.41603 4.62404C 6.62467 4.48494 6.75 4.25076 6.75 4C 6.75 3.74924 6.62467 3.51506 6.41603 3.37596L 6 4ZM 0 8L -0.75 8C -0.75 8.2766 -0.597762 8.53074 -0.353893 8.66126C -0.110025 8.79177 0.185883 8.77747 0.416025 8.62404L 0 8ZM -0.416025 0.624038L 5.58397 4.62404L 6.41603 3.37596L 0.416025 -0.624038L -0.416025 0.624038ZM 5.58397 3.37596L -0.416025 7.37596L 0.416025 8.62404L 6.41603 4.62404L 5.58397 3.37596ZM 0.75 8L 0.75 0L -0.75 0L -0.75 8L 0.75 8Z"/>
</defs>
</svg>
