<?xml version="1.0" encoding="utf-8"?>
<!-- Generator: Adobe Illustrator 21.0.0, SVG Export Plug-In . SVG Version: 6.00 Build 0)  -->
<svg version="1.1" baseProfile="tiny" id="Layer_1" xmlns="http://www.w3.org/2000/svg" xmlns:xlink="http://www.w3.org/1999/xlink"
	 x="0px" y="0px" viewBox="0 0 951 1081" overflow="scroll" xml:space="preserve">
<g>
	<path fill="none" d="M652.9,592.2l-10.8-63.1c0,0,64-65.7,57.1-136.8c0,0-20.7-139.3-180.5-128.2c0,0,72.4,52.7,70.1,139
		c0,0-5.1,117.6-79.9,134.9c0,0,202.1,139.1,211.2,329.8h136C842,792.9,796.9,662.1,652.9,592.2z"/>
	<path fill="none" d="M432.8,598.7l0.7-61.3c0,0,69.3-45.9,68.4-124.5c0,0,51.2-138-148.1-147.6c0,0-133.5,1.9-132.9,136.4
		c0,0,19.8,75.9,94.1,113.3l-9.3,83.6c0,0-230.6,103.3-209.5,260.4l-1.9,8.9h537.5C616.7,794.1,565.4,607.5,432.8,598.7z"/>
	<path fill="#4C84FF" d="M725.2,543.8c0,0,59.4-35.1,50.4-159.3C730,146.4,468.2,197.2,468.2,197.2c-18.5-31.9-112.7-8.3-112.7-8.3
		C196.7,191.3,158.2,300,153.4,388.4c-5.9,118.8,77.2,156.9,77.2,156.9C-12.1,656.3-0.2,925.5-0.2,925.5l48.7,8.8v8h836.7v-15
		l66.7,8.1C953.5,649.1,725.2,543.8,725.2,543.8z M94.3,867.9l1.9-8.9C75.1,701.8,305.7,598.5,305.7,598.5L315,515
		c-74.3-37.4-94.1-113.3-94.1-113.3c-0.6-134.5,132.9-136.4,132.9-136.4C553.1,274.8,502,412.9,502,412.9
		c0.9,78.6-68.4,124.5-68.4,124.5l-0.7,61.3c132.6,8.8,183.9,195.4,199.1,269.2H94.3z M720.2,867.9C711.1,677.1,509,538,509,538
		c74.7-17.2,79.9-134.9,79.9-134.9c2.3-86.3-70.1-139-70.1-139c159.8-11.1,180.5,128.2,180.5,128.2c6.9,71-57.1,136.8-57.1,136.8
		l10.8,63.1C796.9,662.1,842,792.9,856.2,867.9H720.2z"/>
</g>
</svg>
