<svg width="18" height="18" viewBox="0 0 18 18" version="1.1" xmlns="http://www.w3.org/2000/svg" xmlns:xlink="http://www.w3.org/1999/xlink">
<title>copy</title>
<desc>Created using Figma</desc>
<g id="Canvas" transform="translate(-10273 -8893)">
<g id="copy">
<g id="Rectangle-path">
<use xlink:href="#path0_stroke" transform="translate(10279.6 8899.6)" fill="#03D9C9"/>
</g>
<g id="Shape">
<use xlink:href="#path1_stroke" transform="translate(10274 8894)" fill="#03D9C9"/>
</g>
</g>
</g>
<defs>
<path id="path0_stroke" d="M 2 0.625L 8.4 0.625L 8.4 -0.625L 2 -0.625L 2 0.625ZM 9.775 2L 9.775 8.4L 11.025 8.4L 11.025 2L 9.775 2ZM 8.4 9.775L 2 9.775L 2 11.025L 8.4 11.025L 8.4 9.775ZM 0.625 8.4L 0.625 2L -0.625 2L -0.625 8.4L 0.625 8.4ZM 2 9.775C 1.24061 9.775 0.625 9.15939 0.625 8.4L -0.625 8.4C -0.625 9.84975 0.550253 11.025 2 11.025L 2 9.775ZM 9.775 8.4C 9.775 9.15939 9.15939 9.775 8.4 9.775L 8.4 11.025C 9.84975 11.025 11.025 9.84975 11.025 8.4L 9.775 8.4ZM 8.4 0.625C 9.15939 0.625 9.775 1.24061 9.775 2L 11.025 2C 11.025 0.550252 9.84975 -0.625 8.4 -0.625L 8.4 0.625ZM 2 -0.625C 0.550252 -0.625 -0.625 0.550253 -0.625 2L 0.625 2C 0.625 1.24061 1.24061 0.625 2 0.625L 2 -0.625Z"/>
<path id="path1_stroke" d="M 2.4 11.025C 2.74518 11.025 3.025 10.7452 3.025 10.4C 3.025 10.0548 2.74518 9.775 2.4 9.775L 2.4 11.025ZM 9.775 2.4C 9.775 2.74518 10.0548 3.025 10.4 3.025C 10.7452 3.025 11.025 2.74518 11.025 2.4L 9.775 2.4ZM 2.4 9.775L 1.6 9.775L 1.6 11.025L 2.4 11.025L 2.4 9.775ZM 1.6 9.775C 1.06152 9.775 0.625 9.33848 0.625 8.8L -0.625 8.8C -0.625 10.0288 0.371166 11.025 1.6 11.025L 1.6 9.775ZM 0.625 8.8L 0.625 1.6L -0.625 1.6L -0.625 8.8L 0.625 8.8ZM 0.625 1.6C 0.625 1.06152 1.06152 0.625 1.6 0.625L 1.6 -0.625C 0.371166 -0.625 -0.625 0.371166 -0.625 1.6L 0.625 1.6ZM 1.6 0.625L 8.8 0.625L 8.8 -0.625L 1.6 -0.625L 1.6 0.625ZM 8.8 0.625C 9.33848 0.625 9.775 1.06152 9.775 1.6L 11.025 1.6C 11.025 0.371166 10.0288 -0.625 8.8 -0.625L 8.8 0.625ZM 9.775 1.6L 9.775 2.4L 11.025 2.4L 11.025 1.6L 9.775 1.6Z"/>
</defs>
</svg>
