<svg width="24" height="20" viewBox="0 0 24 20" version="1.1" xmlns="http://www.w3.org/2000/svg" xmlns:xlink="http://www.w3.org/1999/xlink">
<title>download-cloud</title>
<desc>Created using Figma</desc>
<g id="Canvas" transform="translate(-11179 -8707)">
<g id="download-cloud">
<g id="Shape">
<use xlink:href="#path0_stroke" transform="translate(11187 8722.01)" fill="#263238"/>
</g>
<g id="Shape">
<use xlink:href="#path1_stroke" transform="translate(11191 8717.01)" fill="#263238"/>
</g>
<g id="Shape">
<use xlink:href="#path2_stroke" transform="translate(11180 8708)" fill="#263238"/>
</g>
</g>
</g>
<defs>
<path id="path0_stroke" d="M 0.53033 -0.53033C 0.237437 -0.823223 -0.237437 -0.823223 -0.53033 -0.53033C -0.823223 -0.237437 -0.823223 0.237437 -0.53033 0.53033L 0.53033 -0.53033ZM 4 4L 3.46967 4.53033C 3.76256 4.82322 4.23744 4.82322 4.53033 4.53033L 4 4ZM 8.53033 0.53033C 8.82322 0.237437 8.82322 -0.237437 8.53033 -0.53033C 8.23744 -0.823223 7.76256 -0.823223 7.46967 -0.53033L 8.53033 0.53033ZM -0.53033 0.53033L 3.46967 4.53033L 4.53033 3.46967L 0.53033 -0.53033L -0.53033 0.53033ZM 4.53033 4.53033L 8.53033 0.53033L 7.46967 -0.53033L 3.46967 3.46967L 4.53033 4.53033Z"/>
<path id="path1_stroke" d="M 0.75 0C 0.75 -0.414214 0.414214 -0.75 0 -0.75C -0.414214 -0.75 -0.75 -0.414214 -0.75 0L 0.75 0ZM -0.75 9C -0.75 9.41421 -0.414214 9.75 0 9.75C 0.414214 9.75 0.75 9.41421 0.75 9L -0.75 9ZM -0.75 0L -0.75 9L 0.75 9L 0.75 0L -0.75 0Z"/>
<path id="path2_stroke" d="M 19.4577 14.4884C 19.1188 14.7266 19.0373 15.1945 19.2756 15.5333C 19.5138 15.8721 19.9817 15.9536 20.3205 15.7154L 19.4577 14.4884ZM 17.0091 6.01188L 17.0091 6.76188L 17.0097 6.76188L 17.0091 6.01188ZM 15.7491 6.01188L 15.0226 6.19829C 15.1077 6.52996 15.4067 6.76188 15.7491 6.76188L 15.7491 6.01188ZM 1.44742 13.7989C 1.72192 14.1091 2.19592 14.138 2.50611 13.8635C 2.81631 13.589 2.84524 13.115 2.57074 12.8048L 1.44742 13.7989ZM 20.3205 15.7154C 22.3723 14.2726 23.252 11.6663 22.4945 9.27518L 21.0645 9.72823C 21.6245 11.4956 20.9742 13.422 19.4577 14.4884L 20.3205 15.7154ZM 22.4945 9.27518C 21.7369 6.88406 19.5168 5.25992 17.0085 5.26188L 17.0097 6.76188C 18.8636 6.76043 20.5046 7.96088 21.0645 9.72823L 22.4945 9.27518ZM 17.0091 5.26188L 15.7491 5.26188L 15.7491 6.76188L 17.0091 6.76188L 17.0091 5.26188ZM 16.4755 5.82547C 15.5746 2.31447 12.6022 -0.27756 9.0013 -0.692307L 8.82967 0.797842C 11.8133 1.14149 14.2762 3.28917 15.0226 6.19829L 16.4755 5.82547ZM 9.0013 -0.692307C 5.40037 -1.10705 1.91652 0.741363 0.241015 3.95562L 1.57115 4.64898C 2.95942 1.98574 5.84604 0.454195 8.82967 0.797842L 9.0013 -0.692307ZM 0.241015 3.95562C -1.43449 7.16987 -0.954717 11.0844 1.44742 13.7989L 2.57074 12.8048C 0.580397 10.5557 0.182872 7.31222 1.57115 4.64898L 0.241015 3.95562Z"/>
</defs>
</svg>
