<svg width="18" height="18" viewBox="0 0 18 18" version="1.1" xmlns="http://www.w3.org/2000/svg" xmlns:xlink="http://www.w3.org/1999/xlink">
<title>edit</title>
<desc>Created using Figma</desc>
<g id="Canvas" transform="translate(-10223 -8893)">
<g id="edit">
<g id="Shape">
<use xlink:href="#path0_stroke" transform="translate(10224 8895.6)" fill="#03D9C9"/>
</g>
<g id="Shape">
<use xlink:href="#path1_stroke" transform="translate(10228.8 8894)" fill="#03D9C9"/>
</g>
</g>
</g>
<defs>
<path id="path0_stroke" d="M 15.025 8.528C 15.025 8.18282 14.7452 7.903 14.4 7.903C 14.0548 7.903 13.775 8.18282 13.775 8.528L 15.025 8.528ZM 5.872 0.625C 6.21718 0.625 6.497 0.345178 6.497 0C 6.497 -0.345178 6.21718 -0.625 5.872 -0.625L 5.872 0.625ZM 13.775 8.528L 13.775 12.8L 15.025 12.8L 15.025 8.528L 13.775 8.528ZM 13.775 12.8C 13.775 13.3385 13.3385 13.775 12.8 13.775L 12.8 15.025C 14.0288 15.025 15.025 14.0288 15.025 12.8L 13.775 12.8ZM 12.8 13.775L 1.6 13.775L 1.6 15.025L 12.8 15.025L 12.8 13.775ZM 1.6 13.775C 1.06152 13.775 0.625 13.3385 0.625 12.8L -0.625 12.8C -0.625 14.0288 0.371166 15.025 1.6 15.025L 1.6 13.775ZM 0.625 12.8L 0.625 1.6L -0.625 1.6L -0.625 12.8L 0.625 12.8ZM 0.625 1.6C 0.625 1.06152 1.06152 0.625 1.6 0.625L 1.6 -0.625C 0.371166 -0.625 -0.625 0.371166 -0.625 1.6L 0.625 1.6ZM 1.6 0.625L 5.872 0.625L 5.872 -0.625L 1.6 -0.625L 1.6 0.625Z"/>
<path id="path1_stroke" d="M 11.2 3.2L 11.6419 3.64194C 11.7592 3.52473 11.825 3.36576 11.825 3.2C 11.825 3.03424 11.7592 2.87527 11.6419 2.75806L 11.2 3.2ZM 3.2 11.2L 3.2 11.825C 3.36576 11.825 3.52473 11.7592 3.64194 11.6419L 3.2 11.2ZM 0 11.2L -0.625 11.2C -0.625 11.5452 -0.345178 11.825 1.38778e-16 11.825L 0 11.2ZM 0 8L -0.441942 7.55806C -0.559152 7.67527 -0.625 7.83424 -0.625 8L 0 8ZM 7.55806 0.441942L 10.7581 3.64194L 11.6419 2.75806L 8.44194 -0.441942L 7.55806 0.441942ZM 10.7581 2.75806L 2.75806 10.7581L 3.64194 11.6419L 11.6419 3.64194L 10.7581 2.75806ZM 3.2 10.575L 0 10.575L 0 11.825L 3.2 11.825L 3.2 10.575ZM 0.625 11.2L 0.625 8L -0.625 8L -0.625 11.2L 0.625 11.2ZM 0.441942 8.44194L 8.44194 0.441942L 7.55806 -0.441942L -0.441942 7.55806L 0.441942 8.44194Z"/>
</defs>
</svg>
