<svg xmlns="http://www.w3.org/2000/svg" width="40" height="40" viewBox="0 0 40 40">
    <g fill="none" fill-rule="evenodd">
        <path fill="transparent" d="M-1189-1224H251V279h-1440z"/>
        <g fill-rule="nonzero">
            <path fill="#FFC107" d="M39.611 16.083H38V16H20v8h11.303c-1.649 4.657-6.08 8-11.303 8-6.627 0-12-5.373-12-12S13.373 8 20 8c3.059 0 5.842 1.154 7.961 3.039l5.657-5.657C30.046 2.053 25.268 0 20 0 8.955 0 0 8.955 0 20s8.955 20 20 20 20-8.955 20-20c0-1.341-.138-2.65-.389-3.917z"/>
            <path fill="#FF3D00" d="M2.306 10.691l6.571 4.819C10.655 11.108 14.961 8 20 8c3.059 0 5.842 1.154 7.961 3.039l5.657-5.657C30.046 2.053 25.268 0 20 0 12.318 0 5.656 4.337 2.306 10.691z"/>
            <path fill="#4CAF50" d="M20 40c5.166 0 9.86-1.977 13.409-5.192l-6.19-5.238A11.91 11.91 0 0 1 20 32c-5.202 0-9.619-3.317-11.283-7.946l-6.522 5.025C5.505 35.556 12.227 40 20 40z"/>
            <path fill="#1976D2" d="M39.611 16.083H38V16H20v8h11.303a12.04 12.04 0 0 1-4.087 5.571l.003-.002 6.19 5.238C32.971 35.205 40 30 40 20c0-1.341-.138-2.65-.389-3.917z"/>
        </g>
    </g>
</svg>
