<svg xmlns="http://www.w3.org/2000/svg" width="44" height="29" viewBox="0 0 44 29">
    <path fill="#C2C6D1" fill-rule="nonzero" d="M14.063 0C6.296 0 0 6.297 0 14.063c0 7.765 6.297 14.062 14.063 14.062 7.765 0 14.062-6.297 14.062-14.063 0-.964-.105-1.906-.29-2.812l-.077-.313H14.063v4.688h9.374c-.746 4.434-4.73 7.813-9.375 7.813a9.372 9.372 0 0 1-9.374-9.375 9.372 9.372 0 0 1 9.375-9.376c2.343 0 4.48.868 6.124 2.29l3.36-3.29A13.997 13.997 0 0 0 14.062 0zm21.874 6.25v4.688H31.25v3.124h4.688v4.688h3.124v-4.688h4.688v-3.124h-4.688V6.25h-3.124z"/>
</svg>
