<svg xmlns="http://www.w3.org/2000/svg" width="12" height="11" viewBox="0 0 12 11">
    <path fill="#4C84FF" fill-rule="nonzero" d="M.5 0C.223 0 0 .223 0 .5v2c0 .277.223.5.5.5h2c.277 0 .5-.223.5-.5v-2c0-.277-.223-.5-.5-.5h-2zM1 1h1v1H1V1zm4 0v1h7V1H5zM.5 4c-.277 0-.5.223-.5.5v2c0 .277.223.5.5.5h2c.277 0 .5-.223.5-.5v-2c0-.277-.223-.5-.5-.5h-2zM1 5h1v1H1V5zm4 0v1h7V5H5zM.5 8c-.277 0-.5.223-.5.5v2c0 .277.223.5.5.5h2c.277 0 .5-.223.5-.5v-2c0-.277-.223-.5-.5-.5h-2zM1 9h1v1H1V9zm4 0v1h7V9H5z"/>
</svg>
