<svg xmlns="http://www.w3.org/2000/svg" width="20" height="20" viewBox="0 0 20 20">
    <g fill="none" fill-rule="evenodd">
        <path fill="#F5F6FA" d="M-832-497H608v900H-832z"/>
        <path fill="#C2D5FF" fill-rule="nonzero" d="M10 0C6.659 0 3.696 1.64 1.875 4.165c-.018.03-.042.06-.06.096A10.08 10.08 0 0 0 .799 6.154h1.665A8.456 8.456 0 0 1 10 1.539 8.45 8.45 0 0 1 18.462 10 8.45 8.45 0 0 1 10 18.462a8.43 8.43 0 0 1-6.743-3.348 8.222 8.222 0 0 1-.787-1.268H.8c.306.733.678 1.436 1.16 2.091.017.03.041.06.06.097.005 0 .005.006.011.006v.006A10.013 10.013 0 0 0 10 20c5.517 0 10-4.483 10-10S15.517 0 10 0zm.77 6.154V9.23H0v1.538h10.77v3.077L14.614 10 10.77 6.154z"/>
    </g>
</svg>
