<svg width="23" height="23" viewBox="0 0 23 23" version="1.1" xmlns="http://www.w3.org/2000/svg" xmlns:xlink="http://www.w3.org/1999/xlink">
<title>Group</title>
<desc>Created using Figma</desc>
<g id="Canvas" transform="translate(-11252 -6676)">
<g id="Group">
<g id="Ellipse 2">
<use xlink:href="#path0_fill" transform="translate(11252 6676)" fill="#FFFFFF"/>
</g>
<g id="arrow-up">
<g id="Vector">
<use xlink:href="#path1_stroke" transform="matrix(6.12323e-17 1 -1 6.12323e-17 11269.1 6687.87)" fill="#7B929E"/>
</g>
<g id="Vector">
<use xlink:href="#path2_stroke" transform="matrix(6.12323e-17 1 -1 6.12323e-17 11269.1 6683.42)" fill="#7B929E"/>
</g>
</g>
</g>
</g>
<defs>
<path id="path0_fill" d="M 23 11.5C 23 17.8513 17.8513 23 11.5 23C 5.14873 23 0 17.8513 0 11.5C 0 5.14873 5.14873 0 11.5 0C 17.8513 0 23 5.14873 23 11.5Z"/>
<path id="path1_stroke" d="M -0.5 11.871C -0.5 12.1471 -0.276142 12.371 0 12.371C 0.276142 12.371 0.5 12.1471 0.5 11.871L -0.5 11.871ZM 0.5 0C 0.5 -0.276142 0.276142 -0.5 0 -0.5C -0.276142 -0.5 -0.5 -0.276142 -0.5 0L 0.5 0ZM 0.5 11.871L 0.5 0L -0.5 0L -0.5 11.871L 0.5 11.871Z"/>
<path id="path2_stroke" d="M -0.353553 4.09806C -0.548816 4.29332 -0.548816 4.6099 -0.353553 4.80517C -0.158291 5.00043 0.158291 5.00043 0.353553 4.80517L -0.353553 4.09806ZM 4.45161 0L 4.80517 -0.353553C 4.6099 -0.548816 4.29332 -0.548816 4.09806 -0.353553L 4.45161 0ZM 8.54967 4.80517C 8.74494 5.00043 9.06152 5.00043 9.25678 4.80517C 9.45204 4.6099 9.45204 4.29332 9.25678 4.09806L 8.54967 4.80517ZM 0.353553 4.80517L 4.80517 0.353553L 4.09806 -0.353553L -0.353553 4.09806L 0.353553 4.80517ZM 4.09806 0.353553L 8.54967 4.80517L 9.25678 4.09806L 4.80517 -0.353553L 4.09806 0.353553Z"/>
</defs>
</svg>
