<svg xmlns="http://www.w3.org/2000/svg" width="13" height="13" viewBox="0 0 13 13">
    <path fill="#E9B461" fill-rule="nonzero" d="M6.5 0a6.75 6.75 0 0 0-1.266.125l.196.984a5.347 5.347 0 0 1 2.14 0v-.004A5.49 5.49 0 0 1 12 6.5a5.49 5.49 0 0 1-4.43 5.395v-.004a4.43 4.43 0 0 1-.515.078c-.184.02-.367.031-.555.031-.367 0-.723-.047-1.07-.113l-.196.976c.41.082.832.137 1.266.137 3.586 0 6.5-2.914 6.5-6.5S10.086 0 6.5 0zM2.89 1.098a6.622 6.622 0 0 0-1.785 1.797l.833.554a5.527 5.527 0 0 1 1.507-1.52l-.554-.831zM6 3v4H4l2.5 2.5L9 7H7V3H6zM.137 5.234A6.44 6.44 0 0 0 0 6.5c0 .434.047.855.125 1.266l.984-.196A5.347 5.347 0 0 1 1 6.5c0-.367.047-.723.117-1.07l-.98-.196zm1.793 4.32l-.832.555a6.622 6.622 0 0 0 1.797 1.786l.554-.832a5.527 5.527 0 0 1-1.52-1.508z"/>
</svg>
