<svg xmlns="http://www.w3.org/2000/svg" width="13" height="13" viewBox="0 0 13 13">
    <path fill="#A0A6B5" fill-rule="nonzero" d="M2.378 0L.798 1.58a2.707 2.707 0 0 0-.434 3.272C1.054 6.036 1.618 6.91 3.98 9.27c2.36 2.364 3.003 2.685 4.167 3.367a2.7 2.7 0 0 0 3.269-.435L13 10.621 9.943 7.569 8.7 8.811a5.194 5.194 0 0 1-.63-.349 11.145 11.145 0 0 1-1.815-1.466 13.786 13.786 0 0 1-1.6-1.952c-.2-.298-.36-.568-.446-.744L4.2 4.284l1.23-1.23L2.379 0zm0 1.419l1.635 1.634-.717.721a.531.531 0 0 0-.161.408c0 .09.016.153.031.212.036.121.083.227.141.352.122.243.298.533.518.863.439.65 1.058 1.438 1.716 2.1a12.173 12.173 0 0 0 1.991 1.596c.298.192.56.337.784.435.114.05.216.09.337.113.06.012.126.02.216.012a.536.536 0 0 0 .357-.16l.717-.718 1.638 1.635-.874.874a1.698 1.698 0 0 1-2.054.274c-1.183-.694-1.634-.878-3.966-3.206-2.328-2.332-2.775-3.05-3.457-4.217a1.698 1.698 0 0 1 .274-2.054l.874-.874z"/>
</svg>
