<svg xmlns="http://www.w3.org/2000/svg" width="34" height="34" viewBox="0 0 34 34">
    <path fill="#C2C6D1" fill-rule="nonzero" d="M29.952 0H4.048A4.05 4.05 0 0 0 0 4.048v25.904A4.05 4.05 0 0 0 4.048 34h25.904A4.05 4.05 0 0 0 34 29.952V4.048A4.05 4.05 0 0 0 29.952 0zM8.5 28.333A2.831 2.831 0 0 1 5.667 25.5 2.826 2.826 0 0 1 8.5 22.667a2.826 2.826 0 0 1 2.833 2.833A2.831 2.831 0 0 1 8.5 28.333zm11.358.203a.803.803 0 0 1-.98.583.81.81 0 0 1-.583-.988c.219-.834.324-1.7.324-2.574 0-5.61-4.541-10.176-10.119-10.176-.89 0-1.773.113-2.623.348a.82.82 0 0 1-.996-.575.811.811 0 0 1 .575-.987 11.685 11.685 0 0 1 3.044-.405c6.476 0 11.738 5.294 11.738 11.795 0 1.012-.13 2.015-.38 2.979zm8.257-.081a.81.81 0 0 1-.802.688c-.04 0-.08 0-.121-.008a.814.814 0 0 1-.68-.923c.138-.89.202-1.797.202-2.704 0-10.046-8.176-18.222-18.222-18.222-.907 0-1.813.064-2.704.202a.814.814 0 0 1-.923-.68.814.814 0 0 1 .68-.923 19.89 19.89 0 0 1 2.947-.218c10.945 0 19.841 8.896 19.841 19.841 0 .988-.073 1.975-.218 2.947z"/>
</svg>
