<svg width="14" height="14" viewBox="0 0 14 14" version="1.1" xmlns="http://www.w3.org/2000/svg" xmlns:xlink="http://www.w3.org/1999/xlink">
<title>settings</title>
<desc>Created using Figma</desc>
<g id="Canvas" transform="translate(-8630 -7013)">
<g id="settings">
<g id="Oval">
<use xlink:href="#path0_stroke" transform="translate(8635.36 7018.36)" fill="#7B929E"/>
</g>
<g id="Shape">
<use xlink:href="#path1_stroke" transform="translate(8631 7014)" fill="#7B929E"/>
</g>
</g>
</g>
<defs>
<path id="path0_stroke" d="M 1.63636 3.77273C 2.81624 3.77273 3.77273 2.81624 3.77273 1.63636L 2.77273 1.63636C 2.77273 2.26396 2.26396 2.77273 1.63636 2.77273L 1.63636 3.77273ZM 3.77273 1.63636C 3.77273 0.456483 2.81624 -0.5 1.63636 -0.5L 1.63636 0.5C 2.26396 0.5 2.77273 1.00877 2.77273 1.63636L 3.77273 1.63636ZM 1.63636 -0.5C 0.456483 -0.5 -0.5 0.456483 -0.5 1.63636L 0.5 1.63636C 0.5 1.00877 1.00877 0.5 1.63636 0.5L 1.63636 -0.5ZM -0.5 1.63636C -0.5 2.81624 0.456483 3.77273 1.63636 3.77273L 1.63636 2.77273C 1.00877 2.77273 0.5 2.26396 0.5 1.63636L -0.5 1.63636Z"/>
<path id="path1_stroke" d="M 10.0364 7.63636L 10.4938 7.83826L 10.4959 7.83333L 10.0364 7.63636ZM 10.2164 8.62909L 9.85891 8.97874L 9.86281 8.98265L 10.2164 8.62909ZM 10.2491 8.66182L 9.89554 9.01537L 9.89573 9.01557L 10.2491 8.66182ZM 10.2491 10.2055L 9.89573 9.8517L 9.89534 9.8521L 10.2491 10.2055ZM 8.70545 10.2055L 9.05921 9.8521L 9.059 9.8519L 8.70545 10.2055ZM 8.67273 10.1727L 9.0263 9.81915L 9.02236 9.8153L 8.67273 10.1727ZM 7.68 9.99273L 7.87698 10.4523L 7.88188 10.4502L 7.68 9.99273ZM 7.13455 10.8164L 6.63455 10.8144L 6.63455 10.8164L 7.13455 10.8164ZM 4.95273 10.86L 5.45286 10.86L 5.45259 10.8483L 4.95273 10.86ZM 4.36364 10.0364L 4.16175 10.4938L 4.17621 10.5002L 4.19105 10.5056L 4.36364 10.0364ZM 3.37091 10.2164L 3.02126 9.85891L 3.01735 9.86281L 3.37091 10.2164ZM 3.33818 10.2491L 2.98462 9.89554L 2.98443 9.89573L 3.33818 10.2491ZM 1.79455 10.2491L 2.1483 9.89573L 2.1479 9.89534L 1.79455 10.2491ZM 1.79455 8.70545L 2.1479 9.05921L 2.1481 9.05901L 1.79455 8.70545ZM 1.82727 8.67273L 2.18085 9.0263L 2.1847 9.02236L 1.82727 8.67273ZM 2.00727 7.68L 1.54768 7.87698L 1.54984 7.88188L 2.00727 7.68ZM 1.18364 7.13455L 1.18563 6.63455L 1.18364 6.63455L 1.18364 7.13455ZM 0 6.04364L -0.5 6.04364L 0 6.04364ZM 1.14 4.95273L 1.14 5.45286L 1.15169 5.45259L 1.14 4.95273ZM 1.96364 4.36364L 1.50621 4.16175L 1.49982 4.17621L 1.49437 4.19105L 1.96364 4.36364ZM 1.78364 3.37091L 2.14109 3.02126L 2.13719 3.01736L 1.78364 3.37091ZM 1.75091 3.33818L 2.10446 2.98463L 2.10427 2.98443L 1.75091 3.33818ZM 1.75091 1.79455L 2.10427 2.1483L 2.10466 2.1479L 1.75091 1.79455ZM 3.29455 1.79455L 2.9408 2.1479L 2.94099 2.1481L 3.29455 1.79455ZM 3.32727 1.82727L 2.9737 2.18085L 2.97764 2.1847L 3.32727 1.82727ZM 4.32 2.00727L 4.32 1.50727L 4.21457 1.50727L 4.11812 1.54984L 4.32 2.00727ZM 4.36364 2.00727L 4.36364 2.50727L 4.46627 2.50727L 4.5606 2.46684L 4.36364 2.00727ZM 4.90909 1.18364L 5.40909 1.18563L 5.40909 1.18364L 4.90909 1.18364ZM 7.09091 1.14L 6.59091 1.14L 6.59091 1.14199L 7.09091 1.14ZM 7.63636 1.96364L 7.83826 1.50618L 7.83333 1.50407L 7.63636 1.96364ZM 8.62909 1.78364L 8.97874 2.14109L 8.98264 2.13719L 8.62909 1.78364ZM 8.66182 1.75091L 9.01537 2.10446L 9.01557 2.10427L 8.66182 1.75091ZM 10.2055 1.75091L 9.8517 2.10427L 9.8521 2.10466L 10.2055 1.75091ZM 10.2055 3.29455L 9.8521 2.9408L 9.8519 2.94099L 10.2055 3.29455ZM 10.1727 3.32727L 9.81915 2.9737L 9.8153 2.97764L 10.1727 3.32727ZM 9.99273 4.32L 10.4927 4.32L 10.4927 4.21457L 10.4502 4.11812L 9.99273 4.32ZM 9.99273 4.36364L 9.49273 4.36364L 9.49273 4.46627L 9.53316 4.5606L 9.99273 4.36364ZM 10.8164 4.90909L 10.8144 5.40909L 10.8164 5.40909L 10.8164 4.90909ZM 10.86 7.09091L 10.86 6.59091L 10.858 6.59091L 10.86 7.09091ZM 9.57893 7.43448C 9.34785 7.95807 9.45873 8.5696 9.85893 8.97872L 10.5738 8.27946C 10.4595 8.16256 10.4278 7.98784 10.4938 7.83825L 9.57893 7.43448ZM 9.86281 8.98265L 9.89554 9.01537L 10.6026 8.30826L 10.5699 8.27553L 9.86281 8.98265ZM 9.89573 9.01557C 10.0067 9.1264 10.069 9.2768 10.069 9.43364L 11.069 9.43364C 11.069 9.01139 10.9012 8.60647 10.6024 8.30807L 9.89573 9.01557ZM 10.069 9.43364C 10.069 9.59047 10.0067 9.74087 9.89573 9.8517L 10.6024 10.5592C 10.9012 10.2608 11.069 9.85588 11.069 9.43364L 10.069 9.43364ZM 9.89534 9.8521C 9.7845 9.96306 9.6341 10.0254 9.47727 10.0254L 9.47727 11.0254C 9.89952 11.0254 10.3044 10.8575 10.6028 10.5588L 9.89534 9.8521ZM 9.47727 10.0254C 9.32044 10.0254 9.17004 9.96306 9.0592 9.8521L 8.3517 10.5588C 8.65011 10.8575 9.05503 11.0254 9.47727 11.0254L 9.47727 10.0254ZM 9.059 9.8519L 9.02628 9.81917L 8.31918 10.5263L 8.3519 10.559L 9.059 9.8519ZM 9.02236 9.8153C 8.61323 9.41509 8.00171 9.30421 7.47812 9.5353L 7.88188 10.4502C 8.03148 10.3841 8.2062 10.4158 8.32309 10.5302L 9.02236 9.8153ZM 7.48303 9.53316C 6.97015 9.75297 6.63678 10.2564 6.63455 10.8144L 7.63454 10.8184C 7.63518 10.6589 7.73043 10.5151 7.87697 10.4523L 7.48303 9.53316ZM 6.63455 10.8164L 6.63455 10.9091L 7.63455 10.9091L 7.63455 10.8164L 6.63455 10.8164ZM 6.63455 10.9091C 6.63455 11.2354 6.36999 11.5 6.04364 11.5L 6.04364 12.5C 6.92227 12.5 7.63455 11.7877 7.63455 10.9091L 6.63455 10.9091ZM 6.04364 11.5C 5.71729 11.5 5.45273 11.2354 5.45273 10.9091L 4.45273 10.9091C 4.45273 11.7877 5.165 12.5 6.04364 12.5L 6.04364 11.5ZM 5.45273 10.9091L 5.45273 10.86L 4.45273 10.86L 4.45273 10.9091L 5.45273 10.9091ZM 5.45259 10.8483C 5.43915 10.2736 5.07575 9.76553 4.53623 9.5671L 4.19105 10.5056C 4.3452 10.5623 4.44902 10.7075 4.45286 10.8717L 5.45259 10.8483ZM 4.56552 9.57893C 4.04193 9.34785 3.4304 9.45873 3.02128 9.85893L 3.72054 10.5738C 3.83744 10.4595 4.01216 10.4278 4.16175 10.4938L 4.56552 9.57893ZM 3.01735 9.86281L 2.98462 9.89554L 3.69174 10.6026L 3.72447 10.5699L 3.01735 9.86281ZM 2.98443 9.89573C 2.8736 10.0067 2.7232 10.069 2.56636 10.069L 2.56636 11.069C 2.98861 11.069 3.39353 10.9012 3.69193 10.6024L 2.98443 9.89573ZM 2.56636 10.069C 2.40953 10.069 2.25913 10.0067 2.1483 9.89573L 1.4408 10.6024C 1.7392 10.9012 2.14412 11.069 2.56636 11.069L 2.56636 10.069ZM 2.1479 9.89534C 2.03694 9.78451 1.9746 9.63411 1.9746 9.47727L 0.974596 9.47727C 0.974596 9.89951 1.14245 10.3044 1.44119 10.6028L 2.1479 9.89534ZM 1.9746 9.47727C 1.9746 9.32044 2.03694 9.17004 2.1479 9.0592L 1.44119 8.3517C 1.14245 8.65011 0.974596 9.05503 0.974596 9.47727L 1.9746 9.47727ZM 2.1481 9.05901L 2.18083 9.02628L 1.47372 8.31917L 1.44099 8.3519L 2.1481 9.05901ZM 2.1847 9.02236C 2.58491 8.61323 2.69579 8.00171 2.4647 7.47812L 1.54984 7.88188C 1.61586 8.03148 1.58418 8.2062 1.46984 8.32309L 2.1847 9.02236ZM 2.46684 7.48303C 2.24703 6.97015 1.74363 6.63678 1.18563 6.63455L 1.18164 7.63454C 1.34107 7.63518 1.4849 7.73043 1.5477 7.87697L 2.46684 7.48303ZM 1.18364 6.63455L 1.09091 6.63455L 1.09091 7.63455L 1.18364 7.63455L 1.18364 6.63455ZM 1.09091 6.63455C 0.764559 6.63455 0.5 6.36999 0.5 6.04364L -0.5 6.04364C -0.5 6.92227 0.212274 7.63455 1.09091 7.63455L 1.09091 6.63455ZM 0.5 6.04364C 0.5 5.71729 0.764559 5.45273 1.09091 5.45273L 1.09091 4.45273C 0.212274 4.45273 -0.5 5.165 -0.5 6.04364L 0.5 6.04364ZM 1.09091 5.45273L 1.14 5.45273L 1.14 4.45273L 1.09091 4.45273L 1.09091 5.45273ZM 1.15169 5.45259C 1.7264 5.43915 2.23447 5.07575 2.4329 4.53623L 1.49437 4.19105C 1.43767 4.3452 1.29251 4.44902 1.12831 4.45286L 1.15169 5.45259ZM 2.42107 4.56552C 2.65215 4.04193 2.54127 3.4304 2.14107 3.02128L 1.42621 3.72054C 1.54055 3.83744 1.57223 4.01216 1.50621 4.16175L 2.42107 4.56552ZM 2.13719 3.01736L 2.10446 2.98463L 1.39736 3.69174L 1.43008 3.72446L 2.13719 3.01736ZM 2.10427 2.98443C 1.99331 2.8736 1.93096 2.7232 1.93096 2.56636L 0.93096 2.56636C 0.93096 2.98861 1.09882 3.39353 1.39755 3.69193L 2.10427 2.98443ZM 1.93096 2.56636C 1.93096 2.40953 1.99331 2.25913 2.10427 2.1483L 1.39755 1.4408C 1.09882 1.7392 0.93096 2.14412 0.93096 2.56636L 1.93096 2.56636ZM 2.10466 2.1479C 2.21549 2.03694 2.36589 1.9746 2.52273 1.9746L 2.52273 0.974596C 2.10049 0.974596 1.69556 1.14245 1.39716 1.44119L 2.10466 2.1479ZM 2.52273 1.9746C 2.67956 1.9746 2.82996 2.03694 2.9408 2.1479L 3.6483 1.44119C 3.34989 1.14245 2.94497 0.974596 2.52273 0.974596L 2.52273 1.9746ZM 2.94099 2.1481L 2.97372 2.18083L 3.68083 1.47372L 3.6481 1.44099L 2.94099 2.1481ZM 2.97764 2.1847C 3.38677 2.58491 3.99829 2.69579 4.52188 2.4647L 4.11812 1.54984C 3.96852 1.61586 3.7938 1.58418 3.67691 1.46984L 2.97764 2.1847ZM 4.32 2.50727L 4.36364 2.50727L 4.36364 1.50727L 4.32 1.50727L 4.32 2.50727ZM 4.5606 2.46684C 5.07349 2.24703 5.40686 1.74363 5.40909 1.18563L 4.40909 1.18164C 4.40846 1.34107 4.31321 1.4849 4.16667 1.5477L 4.5606 2.46684ZM 5.40909 1.18364L 5.40909 1.09091L 4.40909 1.09091L 4.40909 1.18364L 5.40909 1.18364ZM 5.40909 1.09091C 5.40909 0.764559 5.67365 0.5 6 0.5L 6 -0.5C 5.12137 -0.5 4.40909 0.212274 4.40909 1.09091L 5.40909 1.09091ZM 6 0.5C 6.32635 0.5 6.59091 0.764559 6.59091 1.09091L 7.59091 1.09091C 7.59091 0.212274 6.87863 -0.5 6 -0.5L 6 0.5ZM 6.59091 1.09091L 6.59091 1.14L 7.59091 1.14L 7.59091 1.09091L 6.59091 1.09091ZM 6.59091 1.14199C 6.59314 1.69999 6.92651 2.20339 7.4394 2.42321L 7.83333 1.50407C 7.68679 1.44126 7.59154 1.29743 7.59091 1.13801L 6.59091 1.14199ZM 7.43448 2.42107C 7.95807 2.65215 8.5696 2.54127 8.97872 2.14107L 8.27946 1.42621C 8.16256 1.54055 7.98784 1.57223 7.83825 1.50621L 7.43448 2.42107ZM 8.98264 2.13719L 9.01537 2.10446L 8.30827 1.39735L 8.27554 1.43008L 8.98264 2.13719ZM 9.01557 2.10427C 9.1264 1.99331 9.2768 1.93096 9.43364 1.93096L 9.43364 0.93096C 9.01139 0.93096 8.60647 1.09882 8.30807 1.39755L 9.01557 2.10427ZM 9.43364 1.93096C 9.59047 1.93096 9.74087 1.99331 9.8517 2.10427L 10.5592 1.39755C 10.2608 1.09882 9.85588 0.93096 9.43364 0.93096L 9.43364 1.93096ZM 9.8521 2.10466C 9.96306 2.2155 10.0254 2.3659 10.0254 2.52273L 11.0254 2.52273C 11.0254 2.10048 10.8575 1.69556 10.5588 1.39716L 9.8521 2.10466ZM 10.0254 2.52273C 10.0254 2.67956 9.96306 2.82996 9.8521 2.9408L 10.5588 3.6483C 10.8575 3.34989 11.0254 2.94497 11.0254 2.52273L 10.0254 2.52273ZM 9.8519 2.94099L 9.81917 2.97372L 10.5263 3.68082L 10.559 3.6481L 9.8519 2.94099ZM 9.8153 2.97764C 9.41509 3.38677 9.30421 3.99829 9.5353 4.52188L 10.4502 4.11812C 10.3841 3.96852 10.4158 3.7938 10.5302 3.67691L 9.8153 2.97764ZM 9.49273 4.32L 9.49273 4.36364L 10.4927 4.36364L 10.4927 4.32L 9.49273 4.32ZM 9.53316 4.5606C 9.75297 5.07349 10.2564 5.40686 10.8144 5.40909L 10.8184 4.40909C 10.6589 4.40846 10.5151 4.31321 10.4523 4.16667L 9.53316 4.5606ZM 10.8164 5.40909L 10.9091 5.40909L 10.9091 4.40909L 10.8164 4.40909L 10.8164 5.40909ZM 10.9091 5.40909C 11.2354 5.40909 11.5 5.67365 11.5 6L 12.5 6C 12.5 5.12137 11.7877 4.40909 10.9091 4.40909L 10.9091 5.40909ZM 11.5 6C 11.5 6.32635 11.2354 6.59091 10.9091 6.59091L 10.9091 7.59091C 11.7877 7.59091 12.5 6.87863 12.5 6L 11.5 6ZM 10.9091 6.59091L 10.86 6.59091L 10.86 7.59091L 10.9091 7.59091L 10.9091 6.59091ZM 10.858 6.59091C 10.3 6.59314 9.79661 6.92651 9.57679 7.4394L 10.4959 7.83333C 10.5587 7.68679 10.7026 7.59154 10.862 7.59091L 10.858 6.59091Z"/>
</defs>
</svg>
