<svg xmlns="http://www.w3.org/2000/svg" width="168" height="168" viewBox="0 0 168 168">
    <defs>
        <linearGradient id="a" x1="56.778%" x2="56.778%" y1="120.881%" y2="20.463%">
            <stop offset="0%" stop-color="#FF4F4D"/>
            <stop offset="100%" stop-color="#4C84FF"/>
        </linearGradient>
    </defs>
    <g fill="none" fill-rule="evenodd">
        <path fill="#F5F6FA" d="M-1021-602H419V901h-1440z"/>
        <g>
            <path fill="#455A64" fill-opacity=".002" d="M84 0a84.002 84.002 0 0 1 72.744 126A84.002 84.002 0 0 1 84 168 84.002 84.002 0 0 1 11.256 42 84.002 84.002 0 0 1 84 0v10.5a73.485 73.485 0 0 0-63.651 36.75 73.522 73.522 0 0 0 0 73.5A73.485 73.485 0 0 0 84 157.5a73.485 73.485 0 0 0 63.651-36.75 73.522 73.522 0 0 0 0-73.5A73.485 73.485 0 0 0 84 10.5V0z"/>
            <path fill="#E4E5ED" d="M143.399 24.602a83.964 83.964 0 0 1 18.207 27.257l-9.702 4.011a73.558 73.558 0 0 0-15.929-23.845l7.424-7.423zM161.606 51.86A83.982 83.982 0 0 1 168 84h-10.5c0-9.65-1.9-19.215-5.596-28.13l9.702-4.01zM168 84a83.982 83.982 0 0 1-6.394 32.14l-9.702-4.01A73.47 73.47 0 0 0 157.5 84H168z"/>
            <circle cx="82.95" cy="86.1" r="11.55" fill="#E4E5ED"/>
            <path fill="#E45667" d="M125.464 44.252a2.25 2.25 0 0 1 .056 3.065l-37.997 42.37a5.828 5.828 0 0 1-8.53.158 5.92 5.92 0 0 1 .39-8.596l43.041-37.135a2.214 2.214 0 0 1 3.04.138z"/>
            <circle cx="82.95" cy="86.1" r="2.1" fill="#E6E7EC"/>
            <circle cx="156.45" cy="114.45" r="5.25" fill="#E6E7EC"/>
            <g fill="url(#a)">
                <path d="M136.089 31.911l-.114.114a73.558 73.558 0 0 0-23.846-15.928A73.47 73.47 0 0 0 84 10.5a73.47 73.47 0 0 0-28.13 5.596 73.558 73.558 0 0 0-23.845 15.929 73.558 73.558 0 0 0-15.928 23.846A73.47 73.47 0 0 0 10.5 84c0 9.36 1.788 18.64 5.268 27.323a5.25 5.25 0 1 1-9.212 4.75l-.162.067a83.982 83.982 0 0 1 0-64.28 83.964 83.964 0 0 1 18.207-27.258A83.964 83.964 0 0 1 51.86 6.395a83.982 83.982 0 0 1 64.281 0A83.964 83.964 0 0 1 143.4 24.602l-.188.187a5.25 5.25 0 1 1-7.123 7.123z"/>
            </g>
            <g>
                <path fill="#455A64" fill-opacity=".002" d="M87.517 16.892a67.214 67.214 0 0 1 56.363 36.6 67.213 67.213 0 0 1-3.517 67.108 67.214 67.214 0 0 1-59.88 30.508 67.214 67.214 0 0 1-56.363-36.6A67.213 67.213 0 0 1 27.637 47.4a67.214 67.214 0 0 1 59.88-30.508l-.22 4.194a63.004 63.004 0 0 0-56.132 28.602 62.99 62.99 0 0 0-3.297 62.913 63.004 63.004 0 0 0 52.835 34.313 63.004 63.004 0 0 0 56.132-28.602 62.99 62.99 0 0 0 3.297-62.913 63.004 63.004 0 0 0-52.835-34.313l.22-4.194z"/>
                <path fill="#CDD0D4" stroke="#F5F6FA" stroke-width="1.5" d="M88.812 17.724l.75.057.06-.747-.746-.064-.064.754zm-.23 2.691l-.062.743.747.063.063-.747c-.25-.021-.5-.04-.747-.059zm-.497-.034c-.249-.016-.498-.03-.749-.044l-.039.75.75.039.038-.745zm.141-2.697l.04-.753-.749-.039-.04.75c.25.012.5.027.75.042zM99.12 19.288c.247.058.488.116.724.175l.183-.727-.728-.18-.18.732zm-.646 2.625l-.178.724.729.178.18-.727c-.242-.06-.474-.116-.73-.175zm-.484-.109c-.215-.048-.454-.1-.73-.159l-.158.733.734.155.154-.729zm.558-2.644l.155-.735-.733-.154-.151.734c.252.052.495.103.73.155zM109.058 22.45c.242.099.466.191.69.287l.294-.69-.691-.291-.293.695zm-1.051 2.497l-.29.687.692.291.288-.692a167.9 167.9 0 0 0-.69-.286zm-.463-.188c-.25-.1-.465-.183-.705-.273l-.263.702.7.27.268-.699zm.971-2.525l.27-.704-.7-.269-.27.7.7.273zM118.375 27.137l.044.027c.116.07.523.32.598.367l.007.003.385-.643-.638-.395-.396.64zm-1.418 2.292l-.391.632.637.394.393-.638c-.214-.132-.41-.25-.64-.388zm-.434-.257a280.39 280.39 0 0 0-.643-.378l-.38.647.65.376.373-.645zm1.353-2.337l.378-.651-.65-.376-.37.652c.206.117.41.236.642.375zM126.853 33.21l.572.488.489-.568-.567-.491-.494.57zm-1.77 2.043l-.489.564.567.491.491-.566c-.192-.167-.381-.33-.57-.489zm-.381-.32c-.193-.16-.386-.318-.58-.475l-.472.583.583.472.469-.58zm1.7-2.102l.474-.587-.584-.471-.47.584c.188.152.38.309.58.474zM134.263 40.541c.168.194.33.383.487.57l.573-.485-.485-.572-.575.487zm-2.055 1.742l-.572.484.485.572.574-.483a74.86 74.86 0 0 0-.487-.573zm-.331-.382c-.17-.194-.335-.381-.498-.562l-.557.502.502.558.553-.498zm2-1.8l.559-.504-.502-.558-.557.502.5.56zM140.442 48.94a182.2 182.2 0 0 1 .396.645l.639-.393-.387-.642-.648.39zm-2.307 1.391l-.64.386.388.642.643-.386a48.8 48.8 0 0 0-.391-.642zm-.266-.423c-.13-.205-.264-.415-.404-.631l-.63.408.408.629.626-.406zm2.264-1.468l.637-.412-.408-.63-.63.407c.128.2.253.397.401.635zM145.235 58.2c.105.246.194.46.291.695l.694-.286-.283-.695-.702.286zm-2.498 1.017l-.69.281.283.695.694-.285c-.103-.251-.197-.479-.287-.69zm-.196-.462a40.69 40.69 0 0 0-.305-.69l-.683.31.306.685.682-.305zm2.46-1.099l.69-.309-.305-.685-.688.3.302.694zM148.52 68.093l.177.733.729-.176-.172-.73-.734.173zm-2.633.62l-.721.17.172.73.729-.177-.18-.722zm-.125-.486a394.4 394.4 0 0 0-.186-.72l-.726.188.194.725.718-.193zm2.617-.703l.728-.195-.194-.725-.724.197c.066.243.124.466.19.723zM150.215 78.387c.026.275.045.514.061.744l.748-.051-.054-.748-.755.055zm-2.694.197l-.742.054.055.748.748-.057-.06-.745zm-.046-.505c-.024-.253-.05-.503-.076-.749l-.745.08.077.747.744-.078zm2.684-.278l.748-.078-.077-.746-.747.074a169.551 169.551 0 0 0 .076.75zM150.276 88.812l-.057.75.747.06.064-.746-.754-.064zm-2.691-.23l-.743-.062-.063.747.747.063c.021-.25.04-.5.059-.747zm.034-.497c.016-.249.03-.498.044-.749l-.75-.039-.039.75.745.038zm2.697.141l.753.04.039-.749-.75-.04c-.012.25-.027.5-.042.75zM17.785 89.613a31.332 31.332 0 0 1-.061-.744l-.748.051.054.748.755-.055zm2.694-.197l.742-.054-.055-.748-.748.057.06.745zm.046.505c.024.253.05.503.076.749l.745-.08-.077-.747-.744.078zm-2.684.278l-.748.078.077.746.747-.074a169.207 169.207 0 0 0-.076-.75zM17.724 79.188l.057-.75-.747-.06-.064.746.754.064zm2.691.23l.743.062.063-.747-.747-.063c-.021.25-.04.5-.059.747zm-.034.497c-.016.249-.03.498-.044.749l.75.039.039-.75-.745-.038zm-2.697-.141l-.753-.04-.039.749.75.04c.012-.25.027-.5.042-.75zM19.288 68.88c.058-.247.116-.488.175-.724l-.727-.183-.18.728.732.18zm2.625.646l.724.178.178-.729-.727-.18c-.06.242-.116.474-.175.73zm-.109.484c-.048.215-.1.454-.159.73l.733.158.155-.734-.729-.154zm-2.644-.558l-.735-.155-.154.733.734.151c.052-.252.103-.495.155-.73zM22.45 58.942c.099-.242.191-.466.287-.69l-.69-.294-.291.691.695.293zm2.497 1.051l.687.29.291-.692-.692-.288a167.9 167.9 0 0 0-.286.69zm-.188.463c-.1.25-.183.465-.273.705l.702.263.27-.7-.699-.268zm-2.525-.971l-.704-.27-.269.7.7.27.273-.7zM27.137 49.625l.027-.044c.07-.116.32-.523.367-.598l-.001.001-.64-.393-.394.638.64.396zm2.292 1.418l.632.391.394-.637-.638-.393c-.132.214-.25.41-.388.64zm-.257.434l-.378.643.647.38.376-.65-.645-.373zm-2.337-1.353l-.651-.378-.376.65.652.37c.117-.206.236-.41.375-.642zM33.21 41.147l.488-.572-.568-.489-.491.567.57.494zm2.043 1.77l.564.489.491-.567-.566-.491c-.167.192-.33.381-.489.57zm-.32.381c-.16.193-.318.386-.475.58l.583.472.472-.583-.58-.469zm-2.102-1.7l-.587-.474-.471.584.584.47c.152-.188.309-.38.474-.58zM40.541 33.737c.194-.168.383-.33.57-.487l-.485-.573-.572.485.487.575zm1.742 2.055l.484.572.572-.485-.483-.574c-.198.167-.39.33-.573.487zm-.382.331c-.194.17-.381.335-.562.498l.502.557.558-.502-.498-.553zm-1.8-2l-.504-.559-.558.502.502.557.56-.5zM48.94 27.558a198.745 198.745 0 0 1 .645-.396l-.393-.639-.642.387.39.648zm1.391 2.307l.386.64.642-.388-.386-.643c-.211.126-.424.256-.642.391zm-.423.266c-.205.13-.415.264-.631.404l.408.63.629-.408-.406-.626zm-1.468-2.264l-.412-.637-.63.408.407.63c.2-.128.397-.253.635-.401zM58.2 22.765c.246-.105.46-.194.695-.291l-.286-.694-.695.283.286.702zm1.017 2.498l.281.69.695-.283-.285-.694c-.251.103-.479.197-.69.287zm-.462.196c-.24.104-.465.203-.69.305l.31.683.685-.306-.305-.682zM57.656 23l-.309-.69-.685.305.3.688.694-.302zM68.093 19.48l.733-.177-.176-.729-.73.172.173.734zm.62 2.633l.17.721.73-.172-.177-.729c-.229.056-.466.115-.722.18zm-.486.125l-.72.186.188.726.725-.194-.193-.718zm-.703-2.617l-.195-.728-.725.194.197.724c.243-.066.466-.124.723-.19zM78.387 17.785c.275-.026.514-.045.744-.061l-.051-.748-.748.054.055.755zm.197 2.694l.054.742.748-.055-.057-.748-.745.06zm-.505.046c-.253.024-.503.05-.749.076l.08.745.747-.077-.078-.744zm-.278-2.684l-.078-.748-.746.077.074.747a169.207 169.207 0 0 0 .75-.076z"/>
            </g>
            <g fill="#C4C6CC">
                <path d="M97.563 18.232c.687.142 1.373.293 2.058.466l-2.005 8.159a54.76 54.76 0 0 0-1.797-.41l1.744-8.215zM125.886 31.735c.545.438 1.089.898 1.622 1.357l-5.496 6.357a48.726 48.726 0 0 0-1.41-1.178l5.284-6.536zM144.98 56.624c.281.646.563 1.291.833 1.947l-7.779 3.178a48.362 48.362 0 0 0-.72-1.7l7.666-3.425zM150.702 87.479a70.73 70.73 0 0 1-.142 2.106l-8.375-.702c.053-.618.096-1.225.128-1.844l8.389.44zM16.764 90.984c-.068-.697-.147-1.406-.195-2.102l8.38-.612c.042.612.105 1.225.167 1.838l-8.352.876zM20.855 59.876c.255-.66.51-1.308.786-1.956l7.747 3.255c-.24.566-.47 1.143-.69 1.72l-7.843-3.019zM38.633 34.028a66.875 66.875 0 0 1 1.587-1.389l5.426 6.414c-.473.396-.947.802-1.4 1.21l-5.613-6.235zM66.198 19.049c.683-.185 1.364-.35 2.046-.513l1.927 8.176c-.596.137-1.193.295-1.79.453l-2.183-8.116z"/>
            </g>
        </g>
    </g>
</svg>
