<svg width="17" height="18" viewBox="0 0 17 18" version="1.1" xmlns="http://www.w3.org/2000/svg" xmlns:xlink="http://www.w3.org/1999/xlink">
<title>trash-2</title>
<desc>Created using Figma</desc>
<g id="Canvas" transform="translate(-10322 -8893)">
<g id="trash-2">
<g id="Shape">
<use xlink:href="#path0_stroke" transform="translate(10323 8897.2)" fill="#03D9C9"/>
</g>
<g id="Shape">
<use xlink:href="#path1_stroke" transform="translate(10324.6 8894)" fill="#03D9C9"/>
</g>
<g id="Shape">
<use xlink:href="#path2_stroke" transform="translate(10328.6 8901.2)" fill="#03D9C9"/>
</g>
<g id="Shape">
<use xlink:href="#path2_stroke" transform="translate(10331.8 8901.2)" fill="#03D9C9"/>
</g>
</g>
</g>
<defs>
<path id="path0_stroke" d="M 0 -0.625C -0.345178 -0.625 -0.625 -0.345178 -0.625 0C -0.625 0.345178 -0.345178 0.625 0 0.625L 0 -0.625ZM 14.3999 0.625C 14.7451 0.625 15.0249 0.345178 15.0249 0C 15.0249 -0.345178 14.7451 -0.625 14.3999 -0.625L 14.3999 0.625ZM 0 0.625L 1.59999 0.625L 1.59999 -0.625L 0 -0.625L 0 0.625ZM 1.59999 0.625L 14.3999 0.625L 14.3999 -0.625L 1.59999 -0.625L 1.59999 0.625Z"/>
<path id="path1_stroke" d="M 11.1999 3.2002L 11.8249 3.2002C 11.8249 2.85502 11.5451 2.5752 11.1999 2.5752L 11.1999 3.2002ZM 0 3.2002L 0 2.5752C -0.345178 2.5752 -0.625 2.85502 -0.625 3.2002L 0 3.2002ZM 2.40039 3.19998L 1.77539 3.19998C 1.77539 3.54516 2.05521 3.82498 2.40039 3.82498L 2.40039 3.19998ZM 8.80035 3.19998L 8.80035 3.82498C 9.14553 3.82498 9.42535 3.54516 9.42535 3.19998L 8.80035 3.19998ZM 10.5749 3.2002L 10.5749 14.4001L 11.8249 14.4001L 11.8249 3.2002L 10.5749 3.2002ZM 10.5749 14.4001C 10.5749 14.9386 10.1384 15.3751 9.59994 15.3751L 9.59994 16.6251C 10.8288 16.6251 11.8249 15.629 11.8249 14.4001L 10.5749 14.4001ZM 9.59994 15.3751L 1.59999 15.3751L 1.59999 16.6251L 9.59994 16.6251L 9.59994 15.3751ZM 1.59999 15.3751C 1.06152 15.3751 0.625 14.9386 0.625 14.4001L -0.625 14.4001C -0.625 15.629 0.371162 16.6251 1.59999 16.6251L 1.59999 15.3751ZM 0.625 14.4001L 0.625 3.2002L -0.625 3.2002L -0.625 14.4001L 0.625 14.4001ZM 11.1999 2.5752L 0 2.5752L 0 3.8252L 11.1999 3.8252L 11.1999 2.5752ZM 3.02539 3.19998L 3.02539 1.59999L 1.77539 1.59999L 1.77539 3.19998L 3.02539 3.19998ZM 3.02539 1.59999C 3.02539 1.06152 3.46191 0.625 4.00038 0.625L 4.00038 -0.625C 2.77155 -0.625 1.77539 0.371162 1.77539 1.59999L 3.02539 1.59999ZM 4.00038 0.625L 7.20036 0.625L 7.20036 -0.625L 4.00038 -0.625L 4.00038 0.625ZM 7.20036 0.625C 7.73883 0.625 8.17535 1.06152 8.17535 1.59999L 9.42535 1.59999C 9.42535 0.371162 8.42919 -0.625 7.20036 -0.625L 7.20036 0.625ZM 8.17535 1.59999L 8.17535 3.19998L 9.42535 3.19998L 9.42535 1.59999L 8.17535 1.59999ZM 2.40039 3.82498L 8.80035 3.82498L 8.80035 2.57498L 2.40039 2.57498L 2.40039 3.82498Z"/>
<path id="path2_stroke" d="M 0.625 0C 0.625 -0.345178 0.345178 -0.625 0 -0.625C -0.345178 -0.625 -0.625 -0.345178 -0.625 0L 0.625 0ZM -0.625 4.79997C -0.625 5.14515 -0.345178 5.42497 0 5.42497C 0.345178 5.42497 0.625 5.14515 0.625 4.79997L -0.625 4.79997ZM -0.625 0L -0.625 4.79997L 0.625 4.79997L 0.625 0L -0.625 0Z"/>
</defs>
</svg>
