<svg xmlns="http://www.w3.org/2000/svg" width="41" height="33" viewBox="0 0 41 33">
    <path fill="#C2C6D1" fill-rule="nonzero" d="M40.482 3.902a16.585 16.585 0 0 1-4.773 1.312A8.342 8.342 0 0 0 39.362.61a16.654 16.654 0 0 1-5.275 2.018A8.277 8.277 0 0 0 28.027 0c-4.588 0-8.308 3.725-8.308 8.323 0 .651.076 1.287.218 1.897-6.903-.348-13.021-3.662-17.12-8.699a8.307 8.307 0 0 0-1.123 4.187 8.33 8.33 0 0 0 3.695 6.931 8.284 8.284 0 0 1-3.764-1.043v.104a8.331 8.331 0 0 0 6.66 8.165 8.293 8.293 0 0 1-3.751.14c1.06 3.304 4.127 5.716 7.758 5.783a16.625 16.625 0 0 1-10.314 3.56c-.672 0-1.331-.038-1.978-.117a23.427 23.427 0 0 0 12.73 3.741c15.277 0 23.632-12.683 23.632-23.681 0-.36-.01-.725-.022-1.079a16.905 16.905 0 0 0 4.142-4.31z"/>
</svg>
