<svg width="25" height="20" viewBox="0 0 25 20" version="1.1" xmlns="http://www.w3.org/2000/svg" xmlns:xlink="http://www.w3.org/1999/xlink">
<title>upload-cloud</title>
<desc>Created using Figma</desc>
<g id="Canvas" transform="translate(-10058 -10264)">
<g id="upload-cloud">
<g id="Shape">
<use xlink:href="#path0_stroke" transform="translate(10066 10274)" fill="#7B929E"/>
</g>
<g id="Shape">
<use xlink:href="#path1_stroke" transform="translate(10070 10274)" fill="#7B929E"/>
</g>
<g id="Shape">
<use xlink:href="#path2_stroke" transform="translate(10059 10265)" fill="#7B929E"/>
</g>
<g id="Shape">
<use xlink:href="#path0_stroke" transform="translate(10066 10274)" fill="#7B929E"/>
</g>
</g>
</g>
<defs>
<path id="path0_stroke" d="M 7.29289 4.70711C 7.68342 5.09763 8.31658 5.09763 8.70711 4.70711C 9.09763 4.31658 9.09763 3.68342 8.70711 3.29289L 7.29289 4.70711ZM 4 0L 4.70711 -0.707107C 4.31658 -1.09763 3.68342 -1.09763 3.29289 -0.707107L 4 0ZM -0.707107 3.29289C -1.09763 3.68342 -1.09763 4.31658 -0.707107 4.70711C -0.316583 5.09763 0.316583 5.09763 0.707107 4.70711L -0.707107 3.29289ZM 8.70711 3.29289L 4.70711 -0.707107L 3.29289 0.707107L 7.29289 4.70711L 8.70711 3.29289ZM 3.29289 -0.707107L -0.707107 3.29289L 0.707107 4.70711L 4.70711 0.707107L 3.29289 -0.707107Z"/>
<path id="path1_stroke" d="M 1 0C 1 -0.552285 0.552285 -1 0 -1C -0.552285 -1 -1 -0.552285 -1 0L 1 0ZM -1 9C -1 9.55229 -0.552285 10 0 10C 0.552285 10 1 9.55229 1 9L -1 9ZM -1 0L -1 9L 1 9L 1 0L -1 0Z"/>
<path id="path2_stroke" d="M 18.9168 14.5098C 18.4319 14.7741 18.2531 15.3815 18.5174 15.8664C 18.7818 16.3513 19.3892 16.5301 19.8741 16.2658L 18.9168 14.5098ZM 17.0054 5.99777L 17.0061 4.99777L 17.0054 4.99777L 17.0054 5.99777ZM 15.7454 5.99777L 14.7773 6.24807C 14.8914 6.68944 15.2896 6.99777 15.7454 6.99777L 15.7454 5.99777ZM 1.25611 13.96C 1.62183 14.3738 2.25379 14.4128 2.66764 14.0471C 3.08149 13.6814 3.1205 13.0494 2.75478 12.6356L 1.25611 13.96ZM 19.8741 16.2658C 22.2818 14.9532 23.4932 12.1753 22.8168 9.51779L 20.8786 10.0111C 21.3295 11.7828 20.5219 13.6347 18.9168 14.5098L 19.8741 16.2658ZM 22.8168 9.51779C 22.1404 6.86031 19.7483 4.99958 17.0061 4.99777L 17.0048 6.99777C 18.8329 6.99897 20.4276 8.23946 20.8786 10.0111L 22.8168 9.51779ZM 17.0054 4.99777L 15.7454 4.99777L 15.7454 6.99777L 17.0054 6.99777L 17.0054 4.99777ZM 16.7136 5.74746C 15.7811 2.1405 12.7226 -0.519044 9.02109 -0.941679L 8.79421 1.04541C 11.6732 1.37413 14.052 3.44266 14.7773 6.24807L 16.7136 5.74746ZM 9.02109 -0.941679C 5.31959 -1.36431 1.74031 0.53734 0.0187025 3.84125L 1.79235 4.76547C 3.13138 2.19576 5.91526 0.716695 8.79421 1.04541L 9.02109 -0.941679ZM 0.0187025 3.84125C -1.70291 7.14516 -1.21092 11.1683 1.25611 13.96L 2.75478 12.6356C 0.835974 10.4643 0.45332 7.33518 1.79235 4.76547L 0.0187025 3.84125Z"/>
</defs>
</svg>
