<svg xmlns="http://www.w3.org/2000/svg" width="14" height="14" viewBox="0 0 14 14">
    <g fill="none" fill-rule="evenodd">
        <path fill="trasnparent" d="M-588-1054H852V449H-588z"/>
        <path fill="#4C84FF" fill-rule="nonzero" d="M10.695.2l-.8.6a5.46 5.46 0 0 1 0 6.59l.8.602A6.49 6.49 0 0 0 12 4.094c0-1.461-.492-2.809-1.305-3.895zM8.293 2l-.8.602c.316.425.507.933.507 1.492 0 .562-.191 1.07-.508 1.496l.801.598C8.727 5.609 9 4.886 9 4.094A3.5 3.5 0 0 0 8.293 2zM2 4v5h-.5C.676 9 0 9.676 0 10.5v2c0 .824.676 1.5 1.5 1.5h11c.824 0 1.5-.676 1.5-1.5v-2c0-.824-.676-1.5-1.5-1.5H6V4H5v5H3V4H2zm-.5 6h11c.281 0 .5.219.5.5v2c0 .281-.219.5-.5.5h-11a.494.494 0 0 1-.5-.5v-2c0-.281.219-.5.5-.5zm.5 1v1h1v-1H2zm2 0v1h1v-1H4zm2 0v1h1v-1H6zm2 0v1h1v-1H8z"/>
    </g>
</svg>
