<svg xmlns="http://www.w3.org/2000/svg" width="29" height="38" viewBox="0 0 29 38">
    <path fill="#C2C6D1" fill-rule="nonzero" d="M11.55.005C9.298.09 4.63 1.498 3.616 2.55c-.387.37-.485.926-.387 1.295.191.37 8.03 12.308 8.03 12.308 1.161 1.85 1.765 1.645 2.058 1.554.29-.095 1.255-.443 1.063-2.663-.097-2.501-.871-13.51-.966-14.067-.195-.46-.484-.833-1.066-.928a3.326 3.326 0 0 0-.796-.044zm12.326 11.312a1.16 1.16 0 0 0-.639.218c-.604.597-.39.174-3.867 4.798l-1.646 2.125c-.387.461-.295 1.235.092 1.791.387.556.912.85 1.648.707.29-.094.872-.186 1.933-.464 6.67-1.478 6.73-1.468 7.023-1.652.384-.278.579-.647.579-1.203v-.091c-.195-1.479-3.055-5.455-4.409-6.102a1.763 1.763 0 0 0-.714-.127zM1.925 17.76c-.387 0-.872.187-1.165.648-.676.928-.884 3.881-.692 5.918.098.648.195 1.175.387 1.545.29.464.677.742 1.161.742.29 0 .07-.085 5.875-1.75l2.615-.834c.677-.186 1.149-.65 1.149-1.39 0-.738-.359-1.35-1.036-1.629l-1.837-.739c-6.29-2.501-6.168-2.51-6.457-2.51zm17.483 6.513c-.504-.038-.976.088-1.334.473-.312.341-.548 1.311-.16 1.867l1.063 1.57c3.483 5.369 3.502 5.643 3.792 5.83.387.37.871.372 1.356.186 1.548-.556 4.575-4.235 4.767-5.716.098-.462-.094-.926-.485-1.387-.192-.186-.594-.253-6.016-1.942l-2.48-.79a2.56 2.56 0 0 0-.503-.091zm-6.47 1.623c-.519-.057-1.02.047-1.309.464l-1.258 1.478c-4.356 4.905-4.547 5.183-4.645 5.46-.098.187-.098.37-.098.557.098.274.196.46.387.739 1.064 1.111 5.765 2.845 7.313 2.567.485-.091.872-.372 1.064-.833.098-.278.094-.461.094-6.292v-2.684c.004-.812-.352-1.08-1.032-1.358a2.862 2.862 0 0 0-.516-.098z"/>
</svg>
